<?xml version="1.0" encoding="iso-8859-1"?>
<!-- Generator: Adobe Illustrator 19.0.0, SVG Export Plug-In . SVG Version: 6.00 Build 0)  -->
<svg version="1.1" id="Capa_1" xmlns="http://www.w3.org/2000/svg" xmlns:xlink="http://www.w3.org/1999/xlink" x="0px" y="0px"
	 viewBox="0 0 480 480" style="enable-background:new 0 0 480 480;" xml:space="preserve">
<g>
	<g>
		<path d="M312,136V88h-16V40h-8v-8c0-17.673-14.327-32-32-32c-17.673,0-32,14.327-32,32v8h-8v48h-16v16h-24c-4.418,0-8,3.582-8,8
			v104c0,4.418,3.582,8,8,8s8-3.582,8-8v-96h16v16h16v192h-8c-4.418,0-8,3.582-8,8s3.582,8,8,8h8v24c0,0.112,0.056,0.2,0.064,0.312
			c0.013,0.91,0.184,1.812,0.504,2.664L248,449.544V472c0,4.418,3.582,8,8,8s8-3.582,8-8v-22.456l31.432-78.568
			c0.321-0.855,0.492-1.759,0.504-2.672c0-0.104,0.064-0.192,0.064-0.304v-24h8c4.418,0,8-3.582,8-8s-3.582-8-8-8h-8V136H312z
			 M240,32c0-8.837,7.163-16,16-16s16,7.163,16,16v8h-32V32z M232,56h48v32h-48V56z M256,426.464L235.816,376h40.368L256,426.464z
			 M280,360h-48v-16h48V360z M280,328h-48V136h48V328z M216,120v-16h80v16H216z"/>
	</g>
</g>
</svg>
